PathFileType	4	(X/Y/Z)	Patient4_TMGait_0pt5_01_left_15.trc.trc
DataRate	CameraRate	NumFrames	NumMarkers	Units	OrigDataRate	OrigDataStartFrame	OrigNumFrames
74.468085106383	74.468085106383	5	33	mm	74.468085106383	1	       141
Frame#	Time	L.ASIS			Sacral			L.Shoulder			Chest			R.Shoulder			Neck			R.ASIS			R.Thigh.Superior			R.Thigh.Lateral			R.Thigh.Inferior			R.Patella			L.Thigh.Superior			L.Thigh.Lateral			L.Thigh.Inferior			L.Patella			L.Shank.Superior			L.Shank.Lateral			L.Shank.Inferior			R.Shank.Superior			R.Shank.Lateral			R.Shank.Inferior			R.Heel			R.Midfoot.Superior			R.Midfoot.Lateral			R.Toe			L.Heel			L.Midfoot.Lateral			L.Midfoot.Superior			L.Toe			L.Elbow			L.Wrist			R.Elbow			R.Wrist			
		X1	Y1	Z1	X2	Y2	Z2	X3	Y3	Z3	X4	Y4	Z4	X5	Y5	Z5	X6	Y6	Z6	X7	Y7	Z7	X8	Y8	Z8	X9	Y9	Z9	X10	Y10	Z10	X11	Y11	Z11	X12	Y12	Z12	X13	Y13	Z13	X14	Y14	Z14	X15	Y15	Z15	X16	Y16	Z16	X17	Y17	Z17	X18	Y18	Z18	X19	Y19	Z19	X20	Y20	Z20	X21	Y21	Z21	X22	Y22	Z22	X23	Y23	Z23	X24	Y24	Z24	X25	Y25	Z25	X26	Y26	Z26	X27	Y27	Z27	X28	Y28	Z28	X29	Y29	Z29	X30	Y30	Z30	X31	Y31	Z31	X32	Y32	Z32	X33	Y33	Z33	

1	20.050000000000	828.281847606832	964.667509891414	362.882679674731	618.338156672366	1010.254969249908	524.057771148265	792.640457331386	1440.660162184071	349.318557079295	898.103976029721	1366.994984731997	506.742306075277	818.895286864779	1437.640347855730	684.960535355103	798.521194533783	1499.092117952378	501.880304850326	848.090360929921	944.599951508235	635.483904971788	889.208927510100	743.584750920868	609.005649220101	804.823299185834	635.107758803410	661.475256910502	884.197773998146	583.548594804671	583.049699978318	883.317822823656	494.731616142799	585.926131436665	904.423301540531	774.978821051220	386.303482591803	851.665296686145	652.388763560867	308.506364400453	954.434255649442	585.104684738352	364.551365018580	963.912795688492	494.646350764195	356.841300624007	896.993845100997	428.688775733069	350.574735452926	754.393755174149	386.603441656378	304.081679607594	742.877756019585	256.936953861879	358.263956351121	855.356706403100	406.782170444414	589.166419297834	782.434535975251	301.987223632271	644.583885772680	825.469877681944	208.750362290870	580.552647733397	688.360700019175	45.613043115156	543.276698290556	861.364578145467	97.721586955635	580.806547156618	771.376827074572	37.026692155077	617.690376346806	979.915356570828	40.199790477218	608.255648757190	550.741580275866	191.554696919078	398.082305546149	607.815598524022	148.331492399996	315.793927525145	713.674685183088	155.329870622443	335.784337290294	790.921916337186	43.374208748659	304.128216619934	744.436124984223	1086.489947973202	234.359496306952	794.322694376041	831.754678594157	214.480914619613	828.414065659939	1099.757705980484	823.381423772959	1043.445555731801	955.589736535708	829.581659056192	
2	20.063428571429	826.087151457425	965.398659442837	363.106591906954	617.024119208858	1011.031315488418	525.501552498393	791.441480068894	1441.314610112226	350.598171293428	897.913861923206	1366.970468684584	506.987283530168	820.449010399268	1437.581163250525	685.973064014401	798.592243423704	1499.336285325854	503.224390366740	847.063774340026	944.446246011860	635.605592589592	885.643464843533	742.949098360046	608.098166798518	800.908298176271	635.112739835096	661.660977193998	879.023195266792	582.893888739296	582.581784156909	877.416644290514	494.335996738754	585.674132754511	904.081275820544	777.969184299542	386.469777390085	852.985685934416	654.622001199458	308.659522185071	956.376257048825	588.767330841766	364.936434286194	967.873397635367	499.638532775260	357.249562606506	904.678355204363	431.930487934236	350.395385980066	765.755411699497	381.713687730726	303.342259399229	762.584584192996	251.832209958520	356.790958759631	849.344553401446	406.518656383913	589.063083122838	776.061826779252	301.963391595187	644.494599572532	818.751858731342	208.582177162224	580.453976813477	681.215905494090	45.530079904887	543.227049254296	854.223499039276	97.683309749207	580.818477334199	764.219673444591	37.053587353704	617.705127470479	972.748571138921	40.136934915185	608.354338282777	576.315954317852	174.230719509246	396.067377778257	635.585984959380	135.637530803698	313.545092320557	740.083629256569	149.452224110230	333.640019746418	824.001601331071	43.835573654690	301.330165294784	734.763622062601	1088.961236468853	235.539390994671	776.703712893287	833.130347791847	217.124808551433	836.804616024254	1100.753031964513	824.707972140058	1057.663887787989	967.907440734702	828.134416206994	
3	20.076857142857	823.899471242458	966.077288662976	363.286148666290	615.705346757380	1011.778899865129	526.905036206493	790.238910209830	1441.944102133512	351.859547849131	897.714391481596	1366.909389366105	507.208491193623	821.986152811225	1437.465568095962	686.958537590991	798.652749494859	1499.544318139456	504.552791260478	846.028601144091	944.268363260876	635.687201055847	882.093212553568	742.301336552974	607.181201161011	797.030068495410	635.097229314861	661.836588211110	873.895711669367	582.235677127844	582.111323307371	871.574991003225	493.931883433185	585.421181441416	903.621777746142	780.791866312771	386.642485932741	854.119570705396	656.728296935738	308.800752229935	958.024387925128	592.215446121999	365.396123853128	971.541639742139	504.490770778207	357.689603971435	912.120589423791	435.110589104279	350.243406868691	777.105773145710	376.749276700156	302.568818620052	782.324318882497	246.815291806103	355.349288707351	843.376790304947	406.236461895198	588.950966373504	769.743588687891	301.923295461922	644.405757105748	812.075118017047	208.397349292924	580.349124483804	674.107925294381	45.442254266333	543.180063363965	847.111994496519	97.639929536403	580.823162250523	757.100062615017	37.076717688452	617.719611274226	965.619902540709	40.074817735406	608.448285410981	602.198690851304	157.011781184506	394.017350464032	663.638222863924	123.132880334518	311.308841066036	766.609569012295	143.782957363186	331.575283033259	857.136952636774	44.678956190688	298.700239169065	725.169599180583	1091.438055244514	236.715240752037	759.329792987352	834.564833642439	219.776153096007	845.102908650052	1101.690751619167	825.944855485317	1071.634259923268	980.169550806441	826.537294668098	
4	20.090285714286	821.732309397711	966.655978164621	363.381030863923	614.386416868988	1012.463573898978	528.222547334786	789.033590104824	1442.521990398215	353.068478307949	897.491574820727	1366.783208653485	507.378256170802	823.470269457429	1437.251861326498	687.878756120735	798.687413681126	1499.685723814055	505.832006150832	844.984417311346	944.050285456286	635.691286740150	878.596923395435	741.634682674440	606.255685048667	793.238387798303	635.044423352395	661.987035397605	868.881958155484	581.571787563314	581.637589856479	865.868779875988	493.510458875103	585.164302460056	902.930499214756	783.279508896656	386.822340064986	854.900143663856	658.588703103095	308.905383263940	959.127772387822	595.250326095964	365.968883516427	974.640504086083	509.049959287807	358.184340689506	919.062774479018	438.163643404076	350.137224222223	788.351037820986	371.713305272848	301.751890385888	801.974694207860	242.039666362812	353.980405908156	837.514097187787	405.919368869364	588.819543215636	763.544269161552	301.855171630476	644.317175145484	805.490522239617	208.182938903892	580.233475094502	667.080397780702	45.348367103997	543.138810721219	840.070162977745	97.588232714805	580.815906140828	750.061588065206	37.092085668144	617.732562350674	958.573887484357	40.014916434404	608.533380160383	628.458002587676	140.187176151085	391.948673815041	691.995603850918	111.116302076472	309.140499806818	793.151392620491	138.575465152527	329.674522933096	890.109590345497	46.240483145398	296.406520151299	715.780840702833	1093.905598873253	237.878547805467	742.499395537642	836.093591590791	222.425345612700	853.187854772446	1102.519222172771	826.976003257768	1085.051572104580	992.291607386171	824.627158396904	
5	20.103714285714	819.591871837377	967.096136533420	363.360148727365	613.069055094400	1013.056709250196	529.418912554888	787.825021708112	1443.026387182364	354.192900266090	897.230788674148	1366.570035982152	507.471913354653	824.865557939469	1436.910231589435	688.699249296151	798.681861570273	1499.736780516364	507.029746525170	843.931969563756	943.782148460727	635.590100388251	875.187746265350	740.943197768504	605.331046028726	789.567553476335	634.940572375215	662.099218420301	864.031879039923	580.898322405342	581.162885046370	860.350796099115	493.061665910383	584.901177408872	901.903534853531	785.294371498769	387.008774087920	855.190032016985	660.109314577956	308.941471776993	959.487482631775	597.717847700699	366.671461753221	976.951023204912	513.199615939820	358.747765159392	925.303703696681	441.047389850422	350.092810410127	799.438395457269	366.628157200299	300.877133300215	821.443078456697	237.663852551685	352.729199053871	831.796778902095	405.553181764428	588.661542752342	757.501231420379	301.750784747849	644.228973240294	799.021587951372	207.928979098081	580.103957230523	660.145813722213	45.248174018930	543.105974094503	833.108663207562	97.525551143145	580.793083693683	743.117411929908	37.097239463642	617.744584905514	951.624159048632	39.958363373377	608.606451452088	655.154776546322	124.046797104226	389.876487049228	720.697472460691	99.868310876994	307.102790764907	819.639631157222	134.069375971860	328.027669744988	922.750846764626	48.821475581474	294.642451199737	706.690686798435	1096.350326021233	239.026673541825	726.422914907996	837.741324892676	225.065296193291	860.978593165929	1103.201856137169	827.695815511722	1097.683228359435	1004.236466748053	822.250101628937	
